<svg width="56" height="56" viewBox="0 0 56 56" fill="none" xmlns="http://www.w3.org/2000/svg">
<g clip-path="url(#clip0_533_857)">
<path d="M47.8003 5.85361C49.0231 5.65783 50.3017 5.54518 51.5158 5.8558C52.2836 6.04283 52.9748 6.56674 53.2548 7.32143C53.4637 8.67986 52.8042 9.96174 52.0473 11.038C50.6266 13.0166 48.7748 14.643 46.8323 16.0922C44.2073 18.0117 41.3516 19.6228 38.3306 20.8292C36.4406 21.5675 34.4773 22.1691 32.4517 22.3736C31.6128 22.4414 30.7542 22.4469 29.9328 22.2391C29.4647 22.1231 29.0589 21.8541 28.6389 21.6288C28.0964 21.0031 27.9728 20.1238 28.1861 19.3396C28.5164 18.1058 29.2733 17.0449 30.0739 16.0714C31.6205 14.2503 33.4766 12.718 35.4322 11.3552C37.1658 10.1564 38.9978 9.09986 40.8987 8.18877C43.0994 7.15189 45.3984 6.28236 47.8003 5.85361ZM49.0362 7.91971C47.8867 7.99955 46.7733 8.32768 45.6905 8.70502C44.46 9.15455 43.2459 9.6533 42.0789 10.2472C39.4353 11.5488 36.9011 13.0811 34.5725 14.888C33.3453 15.868 32.1137 16.8928 31.218 18.1988C30.9752 18.6297 30.6372 19.1558 30.868 19.6611C31.0266 20.0275 31.4739 20.1314 31.8348 20.1566C33.0194 20.231 34.1711 19.8733 35.29 19.5321C38.977 18.2546 42.4136 16.335 45.6095 14.1114C47.2272 12.9094 48.8711 11.6756 50.072 10.035C50.3662 9.54721 50.8027 8.94018 50.492 8.35939C50.1727 7.90549 49.5372 7.90439 49.0362 7.91971Z" fill="#F06573"/>
<path d="M3.60175 16.6094C4.52487 16.1927 5.5705 16.1566 6.56581 16.2288C9.92362 16.5624 13.1021 17.8519 16.0803 19.3821C18.1738 20.4868 20.1797 21.761 22.0413 23.2244C23.6546 24.5183 25.1913 25.9457 26.39 27.6421C27.0244 28.586 27.6358 29.6568 27.5833 30.8326C27.5844 31.3444 27.3175 31.8016 27.0255 32.203C26.5344 32.4644 26.0389 32.7433 25.4833 32.8418C24.2528 33.0747 22.9863 32.938 21.7667 32.7007C19.8778 32.3463 18.06 31.6911 16.2969 30.9365C12.3419 29.1799 8.6144 26.8261 5.50706 23.7986C4.37175 22.6065 3.24956 21.3333 2.64472 19.778C2.4019 19.1863 2.36472 18.5377 2.40518 17.9055C2.63268 17.3466 3.03956 16.8533 3.60175 16.6094ZM5.82753 18.5235C5.37253 18.5793 4.95362 19.0332 5.09143 19.5046C5.2719 20.1576 5.69409 20.7077 6.10972 21.2294C6.79987 21.9972 7.55565 22.706 8.35956 23.3535C11.1639 25.5968 14.2767 27.443 17.535 28.9447C19.1472 29.6458 20.7911 30.3218 22.5313 30.6258C23.1799 30.7232 23.8886 30.8315 24.5 30.5296C24.803 30.394 24.9419 30.0265 24.8807 29.7136C24.7571 29.0629 24.3174 28.539 23.9182 28.0336C22.0949 25.9851 19.8242 24.398 17.5132 22.9499C16.6228 22.4085 15.7161 21.8944 14.8007 21.3979C12.6886 20.3183 10.5252 19.2847 8.21081 18.7171C7.43425 18.5311 6.62487 18.3846 5.82753 18.5235Z" fill="#F06573"/>
<path d="M45.4858 29.776C46.8213 29.5332 48.2224 29.3735 49.5502 29.7378C50.2754 29.9292 50.9393 30.4235 51.2083 31.141C51.461 32.3803 50.8955 33.5834 50.2371 34.5984C49.2899 36.0203 48.0846 37.2518 46.8005 38.3707C44.9783 39.9567 42.9658 41.3118 40.868 42.5051C38.1151 44.0495 35.1816 45.3325 32.083 45.9898C30.8493 46.237 29.5707 46.389 28.3194 46.191C27.6993 46.1025 27.1404 45.8071 26.611 45.4889C26.1199 44.8862 25.923 44.0637 26.1451 43.3112C26.5607 41.6312 27.7288 40.2793 28.8663 39.0292C31.639 36.1865 35.0044 33.9793 38.5471 32.2162C40.7597 31.1498 43.0697 30.2485 45.4858 29.776ZM46.1946 31.8815C44.3243 32.2162 42.5666 32.9665 40.8385 33.7289C37.8186 35.1748 34.918 36.8887 32.2854 38.9625C31.1293 39.9075 29.9797 40.9017 29.143 42.1507C28.9177 42.55 28.6683 43.017 28.8051 43.4873C29.1124 44.044 29.8419 44.067 30.4019 44.0342C32.6113 43.8209 34.6665 42.9065 36.6757 42.0217C38.7943 41.0089 40.844 39.8484 42.7865 38.5271C44.286 37.5001 45.7669 36.4217 47.0149 35.0928C47.6515 34.4748 48.253 33.7759 48.5418 32.9228C48.7015 32.482 48.4324 31.9876 47.9829 31.8728C47.3966 31.7371 46.7819 31.7842 46.1946 31.8815Z" fill="#F06573"/>
<path d="M53.2546 7.32129C53.947 8.49926 54.6218 9.68707 55.3087 10.8683C55.5613 11.2785 55.6609 11.7696 55.6095 12.2475C55.522 13.1871 55.0495 14.0282 54.5693 14.82C54.2127 14.2754 53.9152 13.6946 53.574 13.1411C53.2229 13.3369 52.8663 13.5261 52.5426 13.7657C52.9385 14.481 53.353 15.1875 53.7687 15.893C53.0698 16.7341 52.2943 17.5074 51.4926 18.25C51.0485 17.6879 50.7915 17.0075 50.3671 16.4311C50.027 16.6335 49.6824 16.8271 49.3423 17.0294C49.712 17.7294 50.1746 18.3802 50.494 19.1064C49.6759 19.7561 48.8413 20.3839 47.9784 20.9724C47.5562 20.3971 47.2488 19.7485 46.8835 19.1382C46.493 19.2563 46.1649 19.5035 45.816 19.7047C46.1649 20.3719 46.5663 21.0085 46.9316 21.6669C46.0216 22.2149 45.1095 22.7563 44.171 23.2539C43.8035 22.6086 43.4295 21.9677 43.0598 21.3235C42.6824 21.4843 42.3226 21.6866 41.9988 21.9371C42.351 22.5671 42.7568 23.1686 43.0598 23.8249C42.1005 24.2635 41.1348 24.6879 40.1548 25.075C39.7249 24.4144 39.3968 23.6914 38.9407 23.0483C38.5929 23.2255 38.2516 23.4136 37.9334 23.64C38.2309 24.2821 38.6476 24.8596 38.9637 25.4918C37.9005 25.8243 36.821 26.0999 35.7262 26.3044C35.3871 25.5585 34.9321 24.8738 34.5296 24.1629C34.161 24.3236 33.8198 24.538 33.4785 24.748C33.7815 25.3277 34.126 25.8833 34.4465 26.4532C33.3713 26.4663 32.201 26.4619 31.2768 25.8341C30.7934 25.5213 30.5659 24.9733 30.2804 24.4986C29.7357 23.5405 29.1626 22.5988 28.6387 21.6286C29.0587 21.8539 29.4645 22.123 29.9326 22.2389C30.754 22.4468 31.6126 22.4413 32.4515 22.3735C34.4771 22.1689 36.4404 21.5674 38.3304 20.8291C41.3513 19.6227 44.2071 18.0116 46.8321 16.0921C48.7746 14.6429 50.6263 13.0164 52.0471 11.0379C52.804 9.9616 53.4635 8.67973 53.2546 7.32129Z" fill="#DD2234"/>
<path d="M0.347779 21.4572C1.03465 20.2737 1.70731 19.0826 2.40512 17.9058C2.36465 18.5379 2.40184 19.1865 2.64465 19.7783C3.2495 21.3336 4.37169 22.6067 5.507 23.7989C8.61434 26.8264 12.3418 29.1801 16.2968 30.9367C18.06 31.6914 19.8778 32.3465 21.7667 32.7009C22.9862 32.9383 24.2528 33.075 25.4832 32.842C26.0389 32.7436 26.5343 32.4647 27.0254 32.2033C26.3747 33.39 25.6757 34.5504 25.0053 35.7262C24.6553 36.3475 23.9772 36.6931 23.3045 36.8473C22.6373 37.007 21.945 37.0169 21.2636 36.9884C21.5293 36.3934 21.9461 35.8783 22.1867 35.2723C21.8454 35.0733 21.5086 34.8665 21.1509 34.6981C20.7429 35.4101 20.3328 36.1211 19.9182 36.8298C18.83 36.657 17.7636 36.365 16.7147 36.0325C17.0526 35.4167 17.4201 34.8184 17.7592 34.2037C17.4322 33.9609 17.0843 33.7356 16.6982 33.6C16.3242 34.277 15.925 34.9398 15.5476 35.6147C14.5447 35.2483 13.5767 34.7976 12.6032 34.359C12.927 33.6984 13.3929 33.1089 13.6565 32.4209C13.3142 32.2295 12.9773 32.0272 12.6251 31.8533C12.2532 32.5051 11.8857 33.1581 11.4975 33.8001C10.5842 33.2915 9.67637 32.7742 8.78059 32.2328C9.06278 31.523 9.57794 30.9323 9.84918 30.2192C9.50903 30.0322 9.17543 29.8353 8.83418 29.6515C8.44809 30.2728 8.097 30.9159 7.7295 31.5481C6.86215 30.929 5.9959 30.3078 5.16794 29.6373C5.53106 28.9395 5.95762 28.2767 6.32731 27.5822C5.99044 27.3634 5.65247 27.1403 5.27403 26.9981C4.91856 27.6073 4.55106 28.2122 4.2295 28.8411C3.41794 28.0853 2.63153 27.3 1.91512 26.4501C2.31434 25.7272 2.74856 25.0228 3.14669 24.2987C2.8109 24.0756 2.47184 23.8547 2.0934 23.7103C1.75215 24.2506 1.46887 24.8248 1.11778 25.3597C0.663873 24.6608 0.261373 23.9061 0.107154 23.0803C0.00106054 22.5334 0.0502793 21.9384 0.347779 21.4572Z" fill="#DD2234"/>
<path d="M51.2083 31.1411C51.9127 32.3377 52.5974 33.5452 53.2952 34.7461C53.5872 35.2131 53.6561 35.7885 53.5642 36.3244C53.4221 37.1797 53.0108 37.9661 52.535 38.6814C52.1872 38.1367 51.9171 37.5439 51.5353 37.0211C51.1941 37.2136 50.8474 37.3974 50.5236 37.6183C50.9031 38.3511 51.3494 39.0478 51.7442 39.7719C51.0464 40.5911 50.2983 41.3666 49.4999 42.0885C49.0011 41.5799 48.7889 40.8711 48.3591 40.31C48.0266 40.4894 47.7006 40.6786 47.3681 40.858C47.6306 41.6072 48.1502 42.2438 48.5013 42.9569C47.6886 43.6033 46.8508 44.218 46.0053 44.8206C45.4825 44.3044 45.2671 43.5628 44.8263 42.9821C44.4719 43.1669 44.1274 43.3681 43.785 43.5738C44.1547 44.2267 44.5266 44.8797 44.9181 45.5196C44.0278 46.0894 43.108 46.6111 42.175 47.1099C41.7506 46.4864 41.4247 45.8039 41.0146 45.1728C40.6656 45.3697 40.3036 45.5491 39.9886 45.8006C40.3419 46.4317 40.7138 47.0508 41.0649 47.683C40.0849 48.1303 39.0994 48.5678 38.0953 48.9594C37.7596 48.2517 37.3352 47.5911 36.9436 46.9141C36.5761 47.0869 36.2163 47.2794 35.8947 47.5266C36.2491 48.1325 36.6177 48.7319 36.936 49.3575C35.8882 49.6955 34.8185 49.9656 33.7346 50.1647C33.3496 49.445 32.9186 48.7527 32.5314 48.0341C32.1541 48.1642 31.8292 48.4016 31.4825 48.5941C31.7253 49.2011 32.1289 49.7261 32.4144 50.3135C31.4683 50.3419 30.4785 50.3222 29.6078 49.9077C29.1791 49.7075 28.8203 49.3706 28.5994 48.9528C27.9399 47.7956 27.2574 46.6527 26.611 45.4889C27.1403 45.8072 27.6992 46.1025 28.3194 46.1911C29.5707 46.3891 30.8492 46.2371 32.083 45.9899C35.1816 45.3325 38.115 44.0496 40.868 42.5052C42.9658 41.3119 44.9783 39.9567 46.8005 38.3708C48.0846 37.2519 49.2899 36.0203 50.2371 34.5985C50.8955 33.5835 51.461 32.3803 51.2083 31.1411Z" fill="#DD2234"/>
<path d="M49.036 7.91984C49.537 7.90453 50.1724 7.90562 50.4918 8.35953C50.8024 8.94031 50.366 9.54734 50.0718 10.0352C48.8709 11.6758 47.227 12.9095 45.6093 14.1116C42.4134 16.3352 38.9768 18.2547 35.2898 19.5322C34.1709 19.8734 33.0191 20.2311 31.8346 20.1567C31.4737 20.1316 31.0263 20.0277 30.8677 19.6612C30.637 19.1559 30.9749 18.6298 31.2177 18.1989C32.1135 16.893 33.3451 15.8681 34.5723 14.8881C36.9009 13.0812 39.4351 11.5489 42.0787 10.2473C43.2457 9.65343 44.4598 9.15468 45.6902 8.70515C46.7731 8.32781 47.8865 7.99968 49.036 7.91984Z" fill="#DD2234"/>
<path d="M22.0292 11.3848C22.5542 11.364 23.0792 11.3793 23.6052 11.3749C23.6031 11.9754 23.6118 12.5759 23.5998 13.1752C24.2035 13.196 24.8084 13.1796 25.4132 13.1851C25.4187 13.7079 25.4143 14.2307 25.4165 14.7546C24.8127 14.7601 24.2101 14.7557 23.6063 14.7568C23.6042 15.3605 23.6063 15.9632 23.6063 16.5669C23.0813 16.5724 22.5574 16.5702 22.0324 16.568C22.0357 15.9643 22.0335 15.3616 22.0346 14.7579C21.4298 14.7546 20.826 14.759 20.2212 14.7557C20.2201 14.2318 20.219 13.7079 20.2223 13.184C20.8249 13.1862 21.4287 13.1829 22.0324 13.1862C22.0335 12.5857 22.0379 11.9852 22.0292 11.3848Z" fill="#DD2234"/>
<path d="M5.82746 18.5237C6.62481 18.3848 7.43418 18.5314 8.21074 18.7173C10.5251 19.285 12.6886 20.3185 14.8006 21.3981C15.7161 21.8946 16.6228 22.4087 17.5131 22.9501C19.8242 24.3982 22.0948 25.9853 23.9181 28.0339C24.3173 28.5392 24.757 29.0631 24.8806 29.7139C24.9418 30.0267 24.8029 30.3942 24.5 30.5298C23.8886 30.8317 23.1798 30.7234 22.5312 30.626C20.7911 30.322 19.1472 29.646 17.535 28.945C14.2767 27.4432 11.1639 25.597 8.35949 23.3537C7.55559 22.7062 6.79981 21.9975 6.10965 21.2296C5.69402 20.7079 5.27184 20.1578 5.09137 19.5048C4.95356 19.0334 5.37246 18.5795 5.82746 18.5237Z" fill="#DD2234"/>
<path d="M52.559 22.6579C53.0829 22.6524 53.6068 22.6546 54.1318 22.6557C54.1406 23.2605 54.1132 23.8664 54.1471 24.4713C54.7465 24.4604 55.3448 24.4658 55.9441 24.4669C55.9452 24.9897 55.9452 25.5125 55.9441 26.0364C55.3404 26.0386 54.7366 26.0354 54.1329 26.0375C54.1296 26.6424 54.1362 27.2472 54.1285 27.8521C53.6057 27.8477 53.0829 27.851 52.5601 27.8488C52.5612 27.2461 52.559 26.6435 52.5623 26.0419C51.9585 26.031 51.3548 26.0408 50.751 26.0354C50.7499 25.5125 50.7488 24.9886 50.751 24.4658C51.3537 24.4647 51.9563 24.4647 52.5601 24.4658C52.5601 23.8632 52.5623 23.2605 52.559 22.6579Z" fill="#DD2234"/>
<path d="M46.1945 31.8815C46.7819 31.7842 47.3965 31.7372 47.9828 31.8728C48.4323 31.9876 48.7014 32.482 48.5417 32.9228C48.2529 33.7759 47.6514 34.4748 47.0148 35.0928C45.7669 36.4217 44.2859 37.5001 42.7864 38.5272C40.8439 39.8484 38.7942 41.0089 36.6756 42.0217C34.6664 42.9065 32.6112 43.8209 30.4019 44.0342C29.8419 44.067 29.1123 44.044 28.805 43.4873C28.6683 43.017 28.9176 42.55 29.1429 42.1508C29.9797 40.9017 31.1292 39.9075 32.2853 38.9625C34.9179 36.8887 37.8186 35.1748 40.8384 33.7289C42.5665 32.9665 44.3242 32.2162 46.1945 31.8815Z" fill="#DD2234"/>
<path d="M16.4336 42.2185C16.4379 41.6147 16.4281 41.011 16.439 40.4072C16.9618 40.4116 17.4836 40.4083 18.0064 40.4094C18.0075 41.0121 18.0064 41.6147 18.0064 42.2174C18.6101 42.2218 19.215 42.2174 19.8187 42.2207C19.8209 42.7435 19.8209 43.2674 19.8187 43.7913C19.2139 43.7935 18.609 43.7869 18.0042 43.7946C18.0097 44.3972 18.0042 44.9988 18.0075 45.6014C17.4836 45.6069 16.9586 45.6047 16.4347 45.6036C16.4379 45.0032 16.4248 44.4016 16.4423 43.8011C15.8375 43.7793 15.2315 43.7968 14.6267 43.7913C14.6245 43.2674 14.6245 42.7435 14.6256 42.2207C15.2283 42.2174 15.8309 42.2207 16.4336 42.2185Z" fill="#DD2234"/>
<path d="M52.5426 13.7656C52.8664 13.5261 53.2229 13.3369 53.574 13.1411C53.9153 13.6946 54.2128 14.2753 54.5693 14.82C54.3364 15.2017 54.0695 15.5627 53.7687 15.893C53.3531 15.1875 52.9385 14.481 52.5426 13.7656Z" fill="#B61A29"/>
<path d="M50.3671 16.4312C50.7915 17.0076 51.0485 17.6879 51.4926 18.2501C51.1853 18.5629 50.8429 18.8407 50.494 19.1065C50.1746 18.3802 49.712 17.7294 49.3423 17.0294C49.6824 16.8271 50.027 16.6335 50.3671 16.4312Z" fill="#B61A29"/>
<path d="M45.816 19.7047C46.1649 19.5035 46.4931 19.2563 46.8835 19.1382C47.2489 19.7485 47.5562 20.3971 47.9784 20.9724L47.986 20.9833C47.6393 21.2196 47.2959 21.4602 46.9317 21.6669C46.5664 21.0085 46.1649 20.3719 45.816 19.7047Z" fill="#B61A29"/>
<path d="M41.9989 21.9373C42.3227 21.6869 42.6825 21.4845 43.0598 21.3237C43.4295 21.9679 43.8036 22.6089 44.1711 23.2542L44.1798 23.2684C43.8091 23.4598 43.4427 23.66 43.0598 23.8251C42.7569 23.1689 42.3511 22.5673 41.9989 21.9373Z" fill="#B61A29"/>
<path d="M37.9333 23.6401C38.2516 23.4137 38.5929 23.2255 38.9407 23.0483C39.3968 23.6915 39.7249 24.4144 40.1548 25.0751C39.7654 25.2347 39.3705 25.3846 38.9637 25.4918C38.6476 24.8596 38.2308 24.2821 37.9333 23.6401Z" fill="#B61A29"/>
<path d="M2.09335 23.71C2.47179 23.8543 2.81085 24.0753 3.14664 24.2984C2.74851 25.0225 2.31429 25.7268 1.91507 26.4498C1.61867 26.1151 1.35945 25.7487 1.10242 25.3834L1.11773 25.3593C1.46882 24.8245 1.7521 24.2503 2.09335 23.71Z" fill="#B61A29"/>
<path d="M33.4785 24.7482C33.8198 24.5382 34.161 24.3239 34.5296 24.1631C34.9321 24.874 35.3871 25.5587 35.7262 26.3046C35.3018 26.3659 34.8774 26.4545 34.4465 26.4534C34.126 25.8836 33.7815 25.3279 33.4785 24.7482Z" fill="#B61A29"/>
<path d="M5.27402 26.998C5.65246 27.1402 5.99043 27.3634 6.3273 27.5821C5.95762 28.2766 5.53105 28.9395 5.16793 29.6373C4.83215 29.3999 4.53355 29.1155 4.22949 28.841C4.55105 28.2121 4.91855 27.6073 5.27402 26.998Z" fill="#B61A29"/>
<path d="M7.72949 31.5479C8.09699 30.9157 8.44809 30.2726 8.83418 29.6514C9.17543 29.8351 9.50902 30.032 9.84918 30.219C9.57793 30.9321 9.06277 31.5228 8.78059 32.2326C8.42074 32.0193 8.07074 31.7907 7.72949 31.5479Z" fill="#B61A29"/>
<path d="M12.6251 31.853C12.9773 32.0269 13.3142 32.2293 13.6565 32.4207C13.3929 33.1087 12.927 33.6982 12.6032 34.3588C12.2259 34.1926 11.8584 34.0012 11.4974 33.7999C11.8857 33.1579 12.2532 32.5049 12.6251 31.853Z" fill="#B61A29"/>
<path d="M16.6982 33.6001C17.0843 33.7357 17.4321 33.961 17.7591 34.2038C17.4201 34.8185 17.0526 35.4168 16.7146 36.0326C16.311 35.9342 15.9282 35.7723 15.5388 35.6301L15.5476 35.6148C15.9249 34.9399 16.3241 34.2771 16.6982 33.6001Z" fill="#B61A29"/>
<path d="M21.151 34.6978C21.5086 34.8662 21.8455 35.0729 22.1867 35.272C21.9461 35.8779 21.5294 36.3931 21.2636 36.9881C20.8086 36.9826 20.3569 36.9334 19.9106 36.8426L19.9183 36.8295C20.3328 36.1207 20.743 35.4098 21.151 34.6978Z" fill="#B61A29"/>
<path d="M50.5236 37.6182C50.8473 37.3972 51.194 37.2135 51.5353 37.021C51.917 37.5438 52.1872 38.1366 52.535 38.6813L52.5459 38.6999C52.3075 39.0772 52.0406 39.4382 51.7442 39.7718C51.3493 39.0477 50.9031 38.351 50.5236 37.6182Z" fill="#B61A29"/>
<path d="M47.368 40.858C47.7005 40.6787 48.0265 40.4894 48.359 40.3101C48.7888 40.8712 49.001 41.5799 49.4998 42.0885C49.2023 42.4155 48.8424 42.6758 48.5012 42.9569C48.1501 42.2438 47.6305 41.6072 47.368 40.858Z" fill="#B61A29"/>
<path d="M43.7849 43.5737C44.1273 43.368 44.4718 43.1668 44.8262 42.9819C45.2669 43.5627 45.4824 44.3043 46.0052 44.8205C45.6596 45.0787 45.2888 45.2996 44.9323 45.5413L44.918 45.5194C44.5265 44.8796 44.1546 44.2266 43.7849 43.5737Z" fill="#B61A29"/>
<path d="M39.9885 45.8007C40.3035 45.5491 40.6656 45.3697 41.0145 45.1729C41.4246 45.8039 41.7506 46.4864 42.1749 47.1099L42.1826 47.1208C41.8151 47.3188 41.4454 47.5135 41.0648 47.683C40.7137 47.0508 40.3418 46.4318 39.9885 45.8007Z" fill="#B61A29"/>
<path d="M35.8947 47.5266C36.2162 47.2794 36.5761 47.0869 36.9436 46.9141C37.3351 47.5911 37.7595 48.2517 38.0953 48.9594C37.7157 49.1092 37.3351 49.2645 36.9359 49.3575C36.6176 48.7319 36.249 48.1325 35.8947 47.5266Z" fill="#B61A29"/>
<path d="M31.4824 48.5942C31.8291 48.4017 32.154 48.1643 32.5313 48.0342C32.9185 48.7528 33.3495 49.4451 33.7345 50.1648C33.297 50.2359 32.8595 50.3289 32.4143 50.3136C32.1288 49.7262 31.7252 49.2012 31.4824 48.5942Z" fill="#B61A29"/>
</g>
<defs>
<clipPath id="clip0_533_857">
<rect width="56" height="56" fill="white"/>
</clipPath>
</defs>
</svg>
