<svg width="61" height="61" viewBox="0 0 61 61" fill="none" xmlns="http://www.w3.org/2000/svg">
<path d="M2.8489 5.86426C7.84931 5.87019 12.8497 5.86426 17.849 5.86782C22.8529 14.0326 27.8569 22.1975 32.8609 30.3623C27.8569 38.5271 22.8529 46.6919 17.8502 54.8567C12.8485 54.8591 7.84694 54.8579 2.84534 54.8579C7.8505 46.6931 12.8545 38.5283 17.8573 30.3635C12.858 22.1951 7.84576 14.035 2.8489 5.86426Z" fill="#B61A29"/>
<path d="M27.8652 5.867C32.8668 5.867 37.8673 5.86581 42.8677 5.86818C47.8717 14.033 52.8756 22.1966 57.8796 30.3626C52.8768 38.5287 47.8717 46.6923 42.8689 54.8571C37.8673 54.8595 32.8668 54.8571 27.8664 54.8583C32.8692 46.6923 37.8744 38.5287 42.8784 30.3626C37.8744 22.1978 32.8704 14.0318 27.8652 5.867Z" fill="#E21F32"/>
</svg>
