<svg width="60" height="60" viewBox="0 0 60 60" fill="none" xmlns="http://www.w3.org/2000/svg">
<g clip-path="url(#clip0_533_818)">
<path d="M25.0254 0H29.9977C30.0047 14.5711 29.9977 29.1422 30.0024 43.7121C30.0106 43.9289 30.0317 44.1445 30.054 44.3613C25.2458 49.5762 20.434 54.7852 15.6258 60H15.6235C18.934 51.1852 22.2504 42.3715 25.5575 33.5543C22.0899 33.5543 18.6211 33.5555 15.1536 33.5543C18.4442 22.3699 21.7278 11.1832 25.0254 0Z" fill="#B61A29"/>
<path d="M8.80901 29.3682C9.90237 29.8041 10.9957 30.24 12.0879 30.6807C11.2348 32.8158 10.3781 34.9498 9.52737 37.0861C11.3754 37.085 13.2223 37.0861 15.0703 37.0861C13.4578 40.2924 11.8828 43.5197 10.2399 46.7096C9.20862 46.1564 8.14924 45.6549 7.10393 45.1287C7.85393 43.624 8.60862 42.1217 9.35745 40.6158C7.68049 40.6193 6.00471 40.6135 4.32776 40.6193C5.78791 36.8564 7.31956 33.1205 8.80901 29.3682Z" fill="#B61A29"/>
<path d="M29.9977 0H44.8137C41.8617 7.65117 38.925 15.307 35.9789 22.9605C40.5832 22.9687 45.1875 22.9465 49.7918 22.9711C43.2129 30.1031 36.634 37.2328 30.0539 44.3613C30.0317 44.1445 30.0106 43.9289 30.0024 43.7121C29.9977 29.1422 30.0047 14.5711 29.9977 0Z" fill="#E21F32"/>
<path d="M49.4285 1.11084C50.523 1.54326 51.6164 1.98154 52.7086 2.42217C51.8684 4.56318 50.9707 6.6831 50.1668 8.83584C52.0078 8.81826 53.8477 8.83232 55.6887 8.82881C54.0937 12.0386 52.4848 15.2425 50.8816 18.4487C49.8328 17.9261 48.7887 17.3917 47.734 16.8808C48.4582 15.3655 49.227 13.8702 49.9805 12.3679C48.2965 12.3491 46.6137 12.3644 44.9297 12.3597C46.4273 8.60967 47.9297 4.86084 49.4285 1.11084Z" fill="#E21F32"/>
</g>
<defs>
<clipPath id="clip0_533_818">
<rect width="60" height="60" fill="white"/>
</clipPath>
</defs>
</svg>
