<svg width="57" height="57" viewBox="0 0 57 57" fill="none" xmlns="http://www.w3.org/2000/svg">
<g clip-path="url(#clip0_533_840)">
<path d="M27.6472 0H28.0571C28.0538 1.9366 28.0614 3.87429 28.0527 5.81088C28.0812 6.02789 27.874 6.13858 27.7272 6.24927C26.2158 7.25867 24.699 8.2604 23.1942 9.27856C22.8731 9.49447 22.4752 9.51639 22.107 9.59311C20.4203 9.92847 18.7369 10.2792 17.0447 10.5828C17.0008 10.7209 16.9559 10.859 16.9219 10.9992C16.5833 12.7419 16.2325 14.4834 15.9027 16.2282C15.8226 16.7827 15.3919 17.1839 15.1168 17.6475C14.2905 18.9308 13.3874 20.1638 12.5643 21.4483C12.4152 21.6237 12.5358 21.8253 12.6421 21.9842C13.6 23.4331 14.5919 24.8579 15.5596 26.3002C16.0144 26.857 15.964 27.6176 16.1262 28.2817C16.4463 29.7536 16.6676 31.2497 17.0403 32.7073C18.75 33.0482 20.4619 33.3769 22.1727 33.7145C22.5443 33.7879 22.9377 33.8384 23.2578 34.0576C24.7899 35.0867 26.3265 36.1103 27.8598 37.1383C27.9814 37.214 28.0812 37.3236 28.0571 37.4803C28.0603 39.4191 28.0549 41.359 28.056 43.2988C27.3786 43.2901 26.7002 43.2627 26.0251 43.2024C21.1129 42.7574 16.3969 40.5512 12.8854 37.0912C10.9696 35.1985 9.39253 32.9572 8.29546 30.4945C6.6767 26.9052 6.08925 22.8665 6.57696 18.9615C7.03837 15.1629 8.54644 11.5001 10.8842 8.47192C12.8745 5.87664 15.4599 3.73948 18.3883 2.28073C21.2521 0.836232 24.4436 0.0767185 27.6472 0Z" fill="#E21F32"/>
<path d="M26.4438 13.2886C26.5129 13.1779 26.5666 12.984 26.7376 13.0135C27.1727 13.0037 27.6111 12.9829 28.044 13.0388C28.0736 16.6566 28.0462 20.2755 28.0604 23.8933C28.0319 24.7635 28.101 25.6381 28.0286 26.5061C27.2143 27.1604 26.1874 27.5024 25.292 28.0361C25.052 28.1764 24.8185 28.3375 24.5467 28.4077C24.3067 28.3474 24.1248 28.1633 23.9275 28.0252C23.3795 27.5802 22.7657 27.2218 22.2188 26.7758C22.0862 26.6629 22.1772 26.4831 22.1882 26.3407C22.3734 25.1943 22.6035 24.0555 22.7734 22.907C22.8205 22.6439 22.517 22.5168 22.38 22.337C21.6007 21.5041 20.6801 20.8169 19.9392 19.9478C20.1957 19.1116 20.485 18.2852 20.7579 17.4534C20.8116 17.3207 20.8544 17.1202 21.0352 17.1257C22.1761 16.9887 23.3115 16.8023 24.4492 16.6445C24.6015 16.6116 24.8163 16.6095 24.8832 16.4363C25.4016 15.3863 25.9211 14.3364 26.4438 13.2886Z" fill="#E21F32"/>
<path d="M28.0571 0H29.2287C32.1243 0.18522 34.9924 0.896511 37.5943 2.18977C41.1771 3.94333 44.2524 6.71287 46.3797 10.0863C48.3524 13.1912 49.5032 16.8112 49.6884 20.4838C49.9471 24.962 48.7547 29.5136 46.3304 33.2893C45.4514 34.6768 44.4014 35.9514 43.2397 37.112C39.7271 40.5699 35.0122 42.7892 30.0978 43.2199C29.4205 43.3065 28.7366 43.2879 28.056 43.2988C28.0549 41.359 28.0604 39.4191 28.0571 37.4803C28.0812 37.3236 27.9815 37.214 27.8598 37.1383C26.3265 36.1103 24.79 35.0867 23.2578 34.0576C22.9378 33.8384 22.5443 33.7879 22.1728 33.7145C20.462 33.3769 18.75 33.0482 17.0403 32.7073C16.6677 31.2497 16.4463 29.7536 16.1263 28.2817C15.9641 27.6176 16.0145 26.857 15.5596 26.3002C14.5919 24.8579 13.6 23.4331 12.6421 21.9842C12.5358 21.8253 12.4153 21.6237 12.5643 21.4483C13.3874 20.1638 14.2905 18.9308 15.1169 17.6475C15.392 17.1839 15.8227 16.7827 15.9027 16.2282C16.2326 14.4834 16.5833 12.7419 16.9219 10.9992C16.9559 10.859 17.0009 10.7209 17.0447 10.5828C18.7369 10.2792 20.4203 9.92847 22.107 9.59311C22.4753 9.51639 22.8731 9.49447 23.1942 9.27856C24.699 8.2604 26.2158 7.25867 27.7272 6.24927C27.8741 6.13858 28.0812 6.02789 28.0527 5.81088C28.0615 3.87429 28.0538 1.9366 28.0571 0ZM28.0538 6.6789C28.0713 8.75906 28.0396 10.8392 28.0713 12.9172C28.5645 12.9556 29.0588 12.9238 29.5509 12.9621C30.1351 14.1359 30.7159 15.3119 31.3056 16.4835C31.5949 16.6216 31.9116 16.6523 32.2262 16.6753C33.2422 16.8353 34.2636 16.9581 35.2763 17.1313C35.5755 17.9434 35.8155 18.7752 36.1038 19.5917C36.1432 19.7517 36.255 19.9556 36.095 20.0871C35.193 21.0044 34.2505 21.8823 33.3616 22.8117C33.5556 24.0129 33.7682 25.2119 33.9776 26.4109C34.1014 26.8219 33.6685 26.9655 33.4153 27.166C32.8301 27.6132 32.2229 28.0286 31.6344 28.4713C30.4167 27.9212 29.2857 27.2055 28.0713 26.6498C28.0352 30.0035 28.0724 33.3583 28.0516 36.7131C28.0626 36.8786 28.0176 37.0748 28.1437 37.2107C28.5426 37.0101 28.878 36.7131 29.2473 36.4676C30.4781 35.6588 31.6968 34.8324 32.9243 34.0181C33.1687 33.8449 33.4778 33.8296 33.7606 33.7616C35.4418 33.4372 37.1165 33.0756 38.8021 32.7764C38.9972 32.7654 39.1506 32.6481 39.1594 32.4421C39.5484 30.5351 39.9101 28.6193 40.2981 26.7134C41.3612 25.1144 42.4473 23.5274 43.5082 21.9251C43.5751 21.8023 43.7055 21.6445 43.5882 21.5086C42.6972 20.1134 41.7338 18.7654 40.8198 17.3855C40.6367 17.094 40.3989 16.831 40.2773 16.5065C39.8783 14.6236 39.5561 12.7243 39.155 10.8414C39.1385 10.7011 39.0673 10.5543 38.9073 10.551C37.3093 10.2397 35.7136 9.91861 34.1157 9.60297C33.7376 9.52735 33.332 9.51419 32.9879 9.3224C31.3691 8.24834 29.769 7.14469 28.136 6.09364C28.0231 6.269 28.0604 6.48272 28.0538 6.6789ZM26.4438 13.2887C25.921 14.3365 25.4015 15.3865 24.8831 16.4364C24.8163 16.6096 24.6015 16.6118 24.4491 16.6446C23.3115 16.8025 22.1761 16.9888 21.0352 17.1258C20.8543 17.1203 20.8116 17.3209 20.7579 17.4535C20.485 18.2853 20.1956 19.1117 19.9392 19.9479C20.6801 20.817 21.6007 21.5042 22.3799 22.3372C22.5169 22.5169 22.8205 22.644 22.7734 22.9071C22.6035 24.0556 22.3733 25.1944 22.1881 26.3408C22.1772 26.4832 22.0862 26.663 22.2188 26.7759C22.7657 27.2219 23.3795 27.5803 23.9274 28.0253C24.1247 28.1634 24.3067 28.3475 24.5467 28.4078C24.8185 28.3376 25.0519 28.1765 25.2919 28.0362C26.1874 27.5025 27.2143 27.1606 28.0286 26.5063C28.1009 25.6382 28.0319 24.7636 28.0604 23.8934C28.0461 20.2756 28.0735 16.6567 28.0439 13.0389C27.611 12.983 27.1726 13.0038 26.7375 13.0137C26.5666 12.9841 26.5129 13.1781 26.4438 13.2887Z" fill="#B61A29"/>
<path d="M28.0537 6.679C28.0603 6.48282 28.023 6.26911 28.1359 6.09375C29.7689 7.14479 31.369 8.24844 32.9878 9.3225C33.3319 9.5143 33.7375 9.52745 34.1156 9.60308C35.7135 9.91872 37.3093 10.2398 38.9072 10.5511C39.0672 10.5544 39.1384 10.7012 39.1549 10.8415C39.556 12.7244 39.8782 14.6238 40.2772 16.5066C40.3988 16.8311 40.6366 17.0941 40.8197 17.3856C41.7337 18.7655 42.6971 20.1135 43.5881 21.5087C43.7054 21.6446 43.575 21.8024 43.5081 21.9252C42.4472 23.5275 41.3611 25.1145 40.298 26.7135C39.91 28.6194 39.5483 30.5352 39.1593 32.4422C39.1505 32.6482 38.9971 32.7655 38.802 32.7765C37.1164 33.0757 35.4417 33.4373 33.7605 33.7617C33.4777 33.8297 33.1686 33.845 32.9242 34.0182C31.6967 34.8325 30.478 35.6589 29.2472 36.4677C28.8779 36.7132 28.5425 37.0102 28.1436 37.2108C28.0175 37.0749 28.0625 36.8787 28.0515 36.7132C28.0723 33.3584 28.0351 30.0036 28.0712 26.6499C29.2856 27.2056 30.4166 27.9213 31.6343 28.4715C32.2228 28.0287 32.83 27.6133 33.4152 27.1661C33.6684 26.9656 34.1013 26.822 33.9775 26.411C33.7681 25.212 33.5555 24.013 33.3615 22.8118C34.2504 21.8824 35.1929 21.0045 36.0949 20.0872C36.2549 19.9557 36.1431 19.7518 36.1037 19.5918C35.8154 18.7753 35.5754 17.9435 35.2762 17.1314C34.2635 16.9582 33.2421 16.8354 32.2261 16.6754C31.9116 16.6524 31.5948 16.6217 31.3055 16.4836C30.7158 15.312 30.135 14.136 29.5508 12.9623C29.0587 12.9239 28.5644 12.9557 28.0712 12.9173C28.0395 10.8393 28.0712 8.75917 28.0537 6.679Z" fill="#F06573"/>
<path d="M12.8855 37.0913C16.397 40.5513 21.113 42.7575 26.0252 43.2025C23.6546 47.3036 21.2807 51.4026 18.9101 55.5027C18.7994 55.7021 18.6394 55.883 18.5966 56.1142H18.5659C17.0644 53.8773 15.6002 51.6141 14.1009 49.3761C11.6624 49.2348 9.22489 49.0791 6.78634 48.9421C6.54522 48.9279 6.29973 48.9301 6.06519 48.8643C8.35359 44.9495 10.6113 41.0149 12.8855 37.0913Z" fill="#020202"/>
<path d="M30.0978 43.2197C35.0121 42.789 39.7271 40.5696 43.2397 37.1118C45.5116 41.0267 47.7628 44.9546 50.049 48.8618C49.9547 48.887 49.8605 48.9056 49.7651 48.9166C47.1808 49.07 44.5965 49.2366 42.0111 49.3758C40.5162 51.6171 39.0497 53.877 37.5493 56.1139H37.523C36.8041 54.7297 35.9678 53.4025 35.2018 52.0401C33.4997 49.1007 31.802 46.158 30.0978 43.2197Z" fill="#727272"/>
</g>
<defs>
<clipPath id="clip0_533_840">
<rect width="56.1141" height="56.1141" fill="white"/>
</clipPath>
</defs>
</svg>
