<svg width="56" height="56" viewBox="0 0 56 56" fill="none" xmlns="http://www.w3.org/2000/svg">
    <path d="M9.51885 10.5106C15.6832 8.90389 21.8378 7.2567 27.9999 5.64014C27.9999 20.5447 27.9999 35.4481 27.9999 50.3526C23.3242 47.7681 18.6659 45.1497 13.9967 42.5553C13.2857 42.1462 12.5343 41.7919 11.9076 41.2537C10.3939 40.0025 9.49479 38.0556 9.51448 36.0934C9.51776 27.5654 9.5101 19.0386 9.51885 10.5106Z" fill="#B61A29"/>
    <path d="M28 5.64014C34.1633 7.24576 40.3156 8.89514 46.4778 10.5084C46.4953 19.0003 46.48 27.4922 46.4855 35.984C46.5194 37.6947 45.8795 39.4108 44.7114 40.6642C44.1525 41.2898 43.4514 41.7667 42.7175 42.1626C37.8087 44.8872 32.9186 47.6456 28 50.3526C28 35.4481 28 20.5447 28 5.64014Z" fill="#DD2234"/>
</svg>
