<svg width="145" height="34" viewBox="0 0 145 34" fill="none" xmlns="http://www.w3.org/2000/svg">
<g clip-path="url(#clip0_1127_267)">
<path d="M136.117 0H127.776C124.982 0 122.309 1.10947 120.344 3.0878L117.764 5.66765L112.097 11.3353L106.429 17.003L100.761 22.6706L98.422 25.0099C97.7938 25.6381 96.9516 25.9857 96.0694 25.9857V15.7732H88.0625V15.84H88.0491H73.9201V23.8469H80.0422L78.8927 24.9965C78.2644 25.6247 77.4223 25.9723 76.5267 25.9723H58.3073C57.0508 25.9723 56.0483 24.9564 56.0483 23.7132V10.2793C56.0483 9.0228 57.0642 8.0069 58.3207 8.0069H96.0828V0H54.8452C51.0757 0 48.0414 3.0477 48.0414 6.79049V0H6.79049C3.0477 0 0 3.0477 0 6.79049V27.1753C0 30.9315 3.0477 33.9658 6.79049 33.9658H30.1295C32.0811 33.9525 33.9391 33.1772 35.3159 31.8004L38.8448 28.2982L40.0211 27.1219V33.9658H48.028V27.1753C48.028 30.9315 51.0757 33.9658 54.8185 33.9658H78.1575C80.1091 33.9525 81.9671 33.1772 83.3439 31.8004L86.8728 28.2982L88.0491 27.1219V33.9658H96.056H97.7002C99.6518 33.9658 101.51 33.1905 102.887 31.8137L106.416 28.3115L112.083 22.6439L117.751 16.9762L123.419 11.3086L125.584 9.1431C126.319 8.40791 127.322 7.99353 128.351 7.99353H144.111V0H136.104H136.117ZM48.0414 15.8267H40.0345L38.8582 16.9896L33.1905 22.6572L30.8513 24.9965C30.223 25.6247 29.3809 25.9723 28.4853 25.9723H10.2659C9.00943 25.9723 8.0069 24.9564 8.0069 23.7132V10.2793C8.0069 9.0228 9.0228 8.0069 10.2793 8.0069H48.0414V15.8267Z" fill="white"/>
<path d="M136.117 0H127.776C124.982 0 122.309 1.10947 120.331 3.0878L117.751 5.66765L112.083 11.3353L106.415 17.003L100.748 22.6706L98.4086 25.0099C97.7803 25.6381 96.9382 25.9857 96.056 25.9857V15.7732H88.0491L73.8933 15.84V23.8469H80.0154L78.8659 24.9965C78.3579 25.5044 77.6896 25.8386 76.9811 25.9456C76.8742 25.9589 76.7672 25.9723 76.6603 25.9723C76.6068 25.9723 76.5534 25.9723 76.4999 25.9723H73.92V33.9792H78.1441C78.2644 33.9792 78.3847 33.9658 78.505 33.9524C78.5718 33.9524 78.6386 33.9524 78.7055 33.9524C78.8792 33.9524 79.053 33.9257 79.2134 33.899C80.764 33.6717 82.2077 32.9499 83.3305 31.8271L86.8594 28.3249L88.0357 27.1486V33.9926H96.0426H97.6868C99.6384 33.9926 101.496 33.2173 102.873 31.8404L106.402 28.3383L112.07 22.6706L117.737 17.003L123.405 11.3353L125.571 9.16984C126.306 8.43464 127.308 8.02026 128.338 8.02026H144.097V0H136.09H136.117Z" fill="#DB1F26"/>
</g>
<defs>
<clipPath id="clip0_1127_267">
<rect width="144.124" height="33.9658" fill="white"/>
</clipPath>
</defs>
</svg>
